<?xml version="1.0" encoding="UTF-8"?>
<svg width="150px" height="150px" viewBox="0 0 150 150" xmlns="http://www.w3.org/2000/svg" xmlns:xlink="http://www.w3.org/1999/xlink" version="1.1">
 <!-- Generated by Pixelmator Pro 2.0.8 -->
 <path id="Shape" d="M88.33 30.908 C88.623 5.221 88.623 5.221 89.315 4.661 89.934 4.16 90.519 4.102 94.915 4.102 99.437 4.102 99.884 4.149 100.595 4.709 101.367 5.316 101.367 5.316 101.367 33.555 101.367 61.323 101.377 61.821 101.969 63.403 102.3 64.287 103.144 65.648 103.844 66.427 104.545 67.207 105.757 68.191 106.539 68.616 107.32 69.04 109.011 69.585 110.296 69.827 111.951 70.139 112.779 70.446 113.13 70.88 113.416 71.233 113.699 72.267 113.797 73.32 113.891 74.324 114.958 88.989 116.167 105.908 117.376 122.827 118.382 137.44 118.402 138.382 118.432 139.829 118.33 140.198 117.739 140.769 117.261 141.231 115.93 141.729 113.515 142.348 111.576 142.845 108.412 143.572 106.484 143.962 104.556 144.352 101.265 144.945 99.17 145.279 97.075 145.612 93.582 146.083 91.406 146.325 89.231 146.566 85.43 146.899 82.96 147.063 80.49 147.228 75.876 147.344 72.706 147.32 69.537 147.296 65.427 147.177 63.574 147.054 61.721 146.932 58.755 146.677 56.982 146.488 55.21 146.3 52.039 145.897 49.935 145.593 47.831 145.289 44.338 144.697 42.171 144.277 40.005 143.857 36.346 143.043 34.04 142.468 31.734 141.893 29.558 141.188 29.206 140.901 28.642 140.443 28.57 140.119 28.611 138.232 28.636 137.051 29.133 129.262 29.715 120.923 30.298 112.585 31.299 98.281 31.941 89.136 32.583 79.992 33.168 72.246 33.241 71.924 33.313 71.602 33.553 71.092 33.772 70.792 34.045 70.42 34.897 70.12 36.457 69.849 37.714 69.63 39.35 69.158 40.091 68.799 40.833 68.44 42.014 67.572 42.715 66.87 43.417 66.169 44.31 64.873 44.701 63.99 45.41 62.386 45.41 62.386 45.41 34.283 45.41 14.311 45.504 5.973 45.735 5.466 45.914 5.073 46.382 4.606 46.775 4.427 47.202 4.232 49.35 4.102 52.123 4.102 56.367 4.102 56.822 4.153 57.529 4.709 58.301 5.316 58.301 5.316 58.301 17.856 58.301 28.09 58.374 30.458 58.7 30.729 58.989 30.968 63.166 31.039 73.715 30.984 L88.33 30.908 Z M96.964 8.496 C93.662 8.496 93.185 8.604 93.049 8.96 92.951 9.214 92.871 14.955 92.871 21.717 92.871 34.011 92.871 34.011 92.152 34.73 91.433 35.449 91.433 35.449 73.709 35.449 61.343 35.449 55.769 35.351 55.271 35.124 54.878 34.945 54.41 34.477 54.232 34.085 54.009 33.597 53.906 29.425 53.906 20.933 L53.906 8.496 52.002 8.496 50.098 8.496 50.098 34.995 C50.098 53.276 49.997 61.964 49.773 63.008 49.595 63.841 49.198 65.087 48.892 65.779 48.587 66.47 47.81 67.736 47.166 68.593 46.522 69.45 45.436 70.596 44.751 71.14 44.066 71.684 42.907 72.434 42.175 72.806 41.443 73.179 40.121 73.694 39.237 73.951 37.629 74.418 37.629 74.418 35.488 104.226 34.31 120.62 33.274 134.788 33.185 135.709 33.032 137.304 33.06 137.4 33.775 137.671 34.188 137.828 36.641 138.429 39.226 139.007 41.811 139.584 45.874 140.377 48.257 140.769 50.639 141.161 54.565 141.702 56.982 141.971 59.399 142.241 64.08 142.542 67.383 142.642 70.686 142.741 74.509 142.791 75.879 142.753 77.249 142.715 80.149 142.615 82.324 142.53 84.5 142.446 88.059 142.179 90.234 141.938 92.41 141.696 96.233 141.166 98.73 140.759 101.228 140.352 105.569 139.495 108.377 138.854 111.185 138.214 113.547 137.624 113.627 137.545 113.706 137.466 113.483 133.347 113.131 128.393 112.778 123.438 112.165 114.573 111.769 108.691 111.372 102.81 110.71 93.12 110.298 87.158 109.886 81.196 109.485 75.905 109.406 75.401 109.275 74.557 109.101 74.431 107.248 73.835 106.14 73.479 104.434 72.665 103.458 72.027 102.481 71.389 101.132 70.248 100.459 69.491 99.786 68.734 98.759 67.126 98.177 65.918 97.119 63.721 97.119 63.721 97.042 36.108 L96.964 8.496 Z M73.975 120.899 C64.628 120.928 57.373 120.832 56.699 120.671 56.06 120.518 55.071 120.122 54.502 119.79 53.933 119.459 53.027 118.771 52.49 118.261 51.952 117.751 51.204 116.807 50.828 116.162 50.451 115.518 50.001 114.208 49.827 113.252 49.637 112.203 49.512 106.965 49.512 100.039 49.512 92.782 49.625 88.24 49.819 87.682 49.988 87.197 50.456 86.65 50.858 86.466 51.385 86.226 57.787 86.133 73.656 86.133 95.536 86.133 95.728 86.138 96.494 86.74 97.266 87.347 97.266 87.347 97.266 100.352 97.266 112.768 97.238 113.43 96.662 114.971 96.299 115.94 95.535 117.122 94.749 117.932 94.029 118.672 92.686 119.632 91.764 120.064 90.088 120.85 90.088 120.85 73.975 120.899 Z M54.199 98.16 C54.199 112.792 54.218 113.026 54.858 113.968 55.221 114.501 55.863 115.192 56.286 115.505 56.709 115.818 57.5 116.18 58.044 116.308 58.588 116.436 65.427 116.549 73.242 116.559 81.057 116.568 88.026 116.465 88.728 116.329 89.43 116.194 90.353 115.829 90.779 115.519 91.204 115.209 91.849 114.375 92.212 113.666 92.842 112.433 92.871 112.061 92.871 105.296 92.871 98.217 92.871 98.217 91.21 98.079 89.863 97.968 89.42 97.791 88.866 97.148 88.491 96.711 88.184 96.105 88.184 95.801 88.184 95.496 88.491 94.89 88.866 94.454 89.421 93.808 89.863 93.634 91.225 93.521 92.9 93.382 92.9 93.382 92.812 92.028 92.725 90.674 92.725 90.674 73.462 90.598 54.199 90.523 54.199 90.523 54.199 91.98 54.199 93.436 54.199 93.436 68.964 93.52 83.007 93.599 83.758 93.631 84.344 94.162 84.759 94.537 84.961 95.074 84.961 95.801 84.961 96.528 84.759 97.065 84.344 97.44 83.758 97.971 83.009 98.002 68.964 98.079 L54.199 98.16 Z" fill="#000000" fill-opacity="1" stroke="none"/>
</svg>
