<?xml version="1.0" encoding="UTF-8"?>
<svg width="150px" height="150px" viewBox="0 0 150 150" xmlns="http://www.w3.org/2000/svg" xmlns:xlink="http://www.w3.org/1999/xlink" version="1.1">
 <!-- Generated by Pixelmator Pro 2.0.8 -->
 <path id="Shape" d="M100.187 137.52 C94.613 137.578 89.419 137.573 88.645 137.508 87.871 137.443 85.654 137.203 83.719 136.975 81.783 136.746 78.806 136.3 77.103 135.983 75.4 135.666 72.93 135.112 71.614 134.751 70.298 134.39 67.701 133.567 65.843 132.922 63.985 132.277 61.198 131.45 59.649 131.086 58.101 130.721 55.533 130.206 53.943 129.942 52.352 129.678 50.416 129.445 49.641 129.424 48.231 129.385 48.231 129.385 47.543 131.074 47.133 132.082 46.41 133.182 45.753 133.801 45.123 134.393 44.23 134.917 43.67 135.022 43.131 135.123 40.235 135.067 37.235 134.898 34.234 134.729 27.409 134.283 22.067 133.906 16.726 133.529 10.304 133.132 7.798 133.022 3.241 132.823 3.241 132.823 2.902 132.004 2.669 131.443 2.61 130.107 2.713 127.752 2.795 125.863 3.09 123.263 3.369 121.974 3.85 119.745 3.896 119.658 4.315 120.213 4.751 120.791 4.795 120.793 8.696 120.379 11.204 120.113 15.535 119.96 20.607 119.958 24.991 119.956 30.438 120.087 32.712 120.249 34.986 120.411 39.687 120.862 43.158 121.251 46.628 121.639 52.392 122.45 55.966 123.052 59.54 123.653 66.138 124.92 70.628 125.867 75.118 126.814 80.376 127.834 82.311 128.134 84.246 128.433 87.857 128.875 90.334 129.115 93.048 129.379 97.656 129.554 101.929 129.555 106.419 129.557 110.581 129.395 113.276 129.113 115.616 128.869 119.266 128.349 121.386 127.957 123.507 127.566 126.698 126.878 128.479 126.429 130.26 125.98 133.237 125.088 135.095 124.448 136.953 123.807 139.423 122.836 140.584 122.29 141.745 121.743 143.041 121.158 143.463 120.988 144.142 120.716 144.331 120.776 145.107 121.514 145.589 121.973 146.162 122.69 146.38 123.108 146.599 123.526 146.777 124.387 146.777 125.022 146.777 125.657 146.599 126.518 146.38 126.936 146.162 127.354 145.623 128.039 145.183 128.457 144.742 128.875 143.403 129.67 142.207 130.222 141.011 130.775 138.985 131.594 137.704 132.043 136.424 132.492 134.173 133.182 132.702 133.576 131.231 133.97 128.571 134.598 126.79 134.971 125.009 135.344 122.159 135.861 120.456 136.119 118.753 136.377 115.776 136.775 113.84 137.002 111.603 137.264 106.631 137.453 100.187 137.52 Z M71.028 64.436 C70.811 72.164 70.811 72.164 68.608 73.908 67.397 74.867 65.424 76.71 64.224 78.004 62.639 79.712 62.042 80.56 62.042 81.104 62.042 81.522 62.329 82.122 62.694 82.465 63.052 82.801 63.678 83.077 64.084 83.077 64.643 83.077 65.391 82.486 67.162 80.65 68.449 79.315 70.313 77.605 71.303 76.85 73.104 75.477 73.104 75.477 74.4 76.673 75.112 77.33 76.315 78.407 77.073 79.066 78.45 80.263 78.45 80.263 77.061 81.74 76.297 82.553 75.067 84.069 74.328 85.109 73.269 86.599 73.003 87.194 73.073 87.915 73.136 88.562 73.383 88.954 73.917 89.252 74.483 89.568 74.87 89.604 75.463 89.395 75.927 89.232 76.814 88.362 77.608 87.293 78.352 86.29 79.504 84.922 80.167 84.252 81.375 83.035 81.375 83.035 83.754 85.562 85.062 86.952 86.664 88.847 87.313 89.772 88.493 91.455 88.493 91.455 87.577 92.685 87.073 93.361 86.312 94.456 85.885 95.118 85.458 95.78 85.04 96.668 84.955 97.093 84.848 97.63 84.985 98.099 85.406 98.635 85.82 99.161 86.273 99.404 86.838 99.404 87.293 99.404 87.848 99.183 88.072 98.912 88.296 98.641 89.007 97.618 89.654 96.64 90.829 94.861 90.829 94.861 91.708 95.936 92.191 96.528 93.132 97.518 93.799 98.138 94.466 98.757 95.786 99.737 96.731 100.316 97.676 100.895 99.141 101.628 99.987 101.944 100.832 102.261 102.478 102.668 103.643 102.849 104.836 103.034 108.051 103.151 110.998 103.116 113.877 103.082 117.817 103.185 119.752 103.345 121.688 103.505 124.348 103.837 125.664 104.082 126.98 104.328 129.07 104.844 130.309 105.23 131.548 105.615 133.321 106.352 134.25 106.868 135.179 107.384 136.465 108.258 137.108 108.811 137.751 109.364 138.667 110.406 139.144 111.126 139.621 111.846 140.277 113.145 140.601 114.013 140.926 114.881 141.261 116.422 141.346 117.437 141.501 119.284 141.501 119.284 139.524 120.168 138.437 120.654 136.285 121.491 134.742 122.028 133.199 122.565 130.494 123.389 128.73 123.858 126.966 124.328 123.813 125.036 121.723 125.432 119.633 125.829 116.339 126.347 114.403 126.584 112.391 126.83 107.63 127.063 103.284 127.128 98.215 127.203 94.37 127.115 91.742 126.862 89.574 126.654 86.027 126.222 83.859 125.903 81.692 125.584 78.081 124.946 75.836 124.487 73.591 124.027 69.981 123.271 67.813 122.807 65.646 122.343 62.035 121.639 59.79 121.242 57.545 120.845 53.555 120.203 50.922 119.815 48.29 119.427 43.793 118.862 40.929 118.558 38.064 118.255 32.87 117.857 29.387 117.673 25.449 117.465 20.55 117.413 16.437 117.535 12.799 117.643 8.999 117.841 7.993 117.976 6.987 118.11 6.127 118.184 6.082 118.139 6.037 118.093 5.792 117.058 5.538 115.839 5.245 114.429 5.075 112.236 5.072 109.82 5.069 107.561 5.27 104.707 5.568 102.783 5.842 101.002 6.491 97.898 7.008 95.885 7.525 93.873 8.454 90.832 9.072 89.129 9.69 87.426 10.974 84.196 11.925 81.951 12.876 79.706 14.025 76.539 14.479 74.913 14.933 73.287 15.528 70.437 15.801 68.579 16.122 66.389 16.296 63.517 16.296 60.415 16.296 57.783 16.129 54.109 15.924 52.251 15.719 50.393 15.237 47.243 14.852 45.251 14.467 43.258 13.839 40.408 13.456 38.917 13.073 37.425 12.18 34.454 11.472 32.314 10.763 30.174 9.767 27.39 9.258 26.129 8.333 23.835 8.333 23.835 9.192 23.201 9.664 22.852 11.076 22.062 12.329 21.444 13.582 20.826 15.778 19.939 17.209 19.474 18.64 19.009 20.983 18.408 22.417 18.138 24.514 17.743 26.783 17.639 34.032 17.605 41.838 17.569 43.933 17.461 49.733 16.795 54.268 16.275 57.399 16.059 59.445 16.125 61.661 16.196 62.744 16.361 63.516 16.743 64.094 17.029 64.82 17.673 65.13 18.174 65.552 18.857 65.769 19.962 65.995 22.578 66.161 24.499 66.549 27.971 66.857 30.293 67.165 32.616 67.661 36.226 67.959 38.316 68.257 40.406 68.566 42.572 68.646 43.128 68.791 44.14 68.791 44.14 64.361 44.316 61.924 44.413 58.917 44.627 57.679 44.793 56.44 44.958 54.413 45.291 53.175 45.533 51.936 45.775 50.701 46.17 50.43 46.411 50.155 46.655 49.937 47.246 49.937 47.747 49.937 48.285 50.161 48.847 50.495 49.15 50.956 49.567 51.358 49.625 52.817 49.485 53.788 49.392 55.849 49.122 57.397 48.886 58.946 48.65 62.256 48.373 64.755 48.27 69.297 48.083 69.297 48.083 69.481 49.463 69.582 50.222 69.835 52.3 70.044 54.081 70.253 55.861 70.501 58.033 70.596 58.906 70.767 60.494 70.767 60.494 67.319 60.689 65.423 60.796 62.162 61.057 60.072 61.27 56.565 61.626 56.222 61.713 55.638 62.388 55.289 62.791 55.004 63.43 55.004 63.809 55.004 64.187 55.269 64.761 55.592 65.085 56.109 65.602 56.389 65.65 57.915 65.489 58.869 65.387 60.663 65.194 61.901 65.06 63.14 64.925 65.7 64.73 67.591 64.625 L71.028 64.436 Z" fill="#000000" fill-opacity="1" stroke="none"/>
</svg>
