<?xml version="1.0" encoding="UTF-8"?>
<svg width="150px" height="150px" viewBox="0 0 150 150" xmlns="http://www.w3.org/2000/svg" xmlns:xlink="http://www.w3.org/1999/xlink" version="1.1">
 <!-- Generated by Pixelmator Pro 2.0.8 -->
 <path id="Shape" d="M33 123.086 C15.156 108.016 10.165 103.249 10.216 102.589 10.266 101.942 15.194 95.608 21.168 88.515 L32.03 75.618 32.508 50.747 C32.77 37.067 33.343 24.134 33.781 22.005 34.225 19.847 35.374 17.276 36.378 16.193 37.516 14.965 38.977 14.25 40.348 14.25 41.565 14.25 43.113 14.909 43.875 15.75 44.622 16.575 45.475 17.25 45.77 17.25 46.066 17.25 46.52 15.926 46.779 14.308 47.037 12.69 48.092 10.364 49.122 9.14 50.153 7.915 51.843 6.701 52.879 6.441 54.057 6.145 55.674 6.466 57.194 7.297 58.531 8.027 59.82 8.718 60.058 8.832 60.297 8.946 60.854 8.244 61.296 7.272 61.739 6.301 62.665 4.942 63.354 4.253 64.08 3.527 65.792 3 67.423 3 69.377 3 70.719 3.516 71.809 4.688 72.673 5.616 73.79 7.285 74.292 8.397 75.204 10.419 75.204 10.419 76.801 8.049 77.68 6.745 79.627 5.211 81.129 4.639 83.429 3.764 84.194 3.76 85.992 4.614 87.165 5.171 88.711 6.808 89.428 8.251 90.236 9.877 91.377 10.972 92.428 11.131 93.361 11.272 94.716 11.915 95.438 12.56 96.254 13.289 96.75 14.816 96.75 16.6 96.75 19.467 96.75 19.467 100.272 17.233 102.209 16.005 104.665 15 105.73 15 106.795 15 108.37 15.493 109.23 16.095 110.09 16.697 111.21 18.196 111.719 19.424 112.556 21.447 112.832 21.587 114.627 20.904 115.717 20.49 117.656 20.347 118.935 20.587 120.214 20.827 122.032 21.845 122.976 22.849 124.438 24.406 124.643 25.271 124.358 28.701 124.024 32.726 124.024 32.726 127.958 32.399 131.416 32.113 132.125 32.307 133.821 34.003 135.189 35.371 135.75 36.728 135.75 38.673 135.75 40.312 134.797 43.202 133.383 45.857 132.081 48.3 128.979 52.734 126.49 55.712 124.001 58.689 119.62 63.825 116.754 67.125 113.889 70.425 110.04 74.981 108.2 77.25 106.361 79.519 104.012 83.164 102.981 85.35 101.772 87.912 101.269 89.972 101.564 91.148 101.816 92.152 103.114 93.565 104.448 94.289 106.443 95.372 109.136 95.64 119.568 95.795 131.45 95.972 132.373 96.089 134.006 97.623 135.211 98.755 135.75 100.104 135.75 101.987 135.75 103.487 135.328 105.25 134.813 105.905 134.297 106.561 132.863 107.6 131.625 108.215 130.388 108.83 126.675 109.863 123.375 110.509 120.075 111.156 113.663 112.219 109.125 112.873 104.588 113.526 100.122 114.221 99.202 114.416 97.544 114.768 97.528 114.905 97.327 130.698 L97.125 146.625 65.571 146.821 C48.216 146.928 33.787 146.787 33.508 146.508 33.229 146.229 33 140.844 33 134.543 L33 123.086 Z M65.25 144 C94 144 94.5 143.974 94.5 142.5 94.5 141.026 94 141 65.25 141 36.5 141 36 141.026 36 142.5 36 143.974 36.5 144 65.25 144 Z M43.313 137.976 C50.625 137.953 50.625 137.953 48.721 136.289 47.674 135.374 45.003 133.106 42.786 131.25 40.568 129.394 38.135 127.434 37.377 126.895 36.074 125.967 36 126.239 36 131.957 36 138 36 138 43.313 137.976 Z M94.5 138 L94.5 115.285 89.095 115.787 C86.122 116.063 81.665 116.814 79.191 117.455 76.716 118.096 73.833 119.071 72.783 119.622 71.734 120.172 69.838 121.748 68.57 123.124 67.302 124.499 64.433 128.127 62.195 131.185 59.956 134.243 58.013 137.028 57.875 137.373 57.737 137.718 65.922 138 76.063 138 L94.5 138 Z M54.101 136.478 C54.363 136.49 55.116 135.678 55.775 134.673 56.969 132.85 56.952 132.83 47.048 124.705 41.59 120.228 32.443 112.766 26.721 108.124 16.558 99.88 16.282 99.715 14.82 101.029 13.342 102.357 13.381 102.426 17.724 106.242 20.144 108.369 29.213 116.037 37.875 123.282 46.537 130.528 53.839 136.466 54.101 136.478 Z M60.277 128.828 C61.047 127.891 62.66 125.701 63.86 123.96 65.059 122.219 67.178 119.928 68.567 118.868 69.956 117.809 72.931 116.296 75.178 115.506 77.424 114.716 83.282 113.518 88.194 112.842 93.106 112.167 103.706 110.606 111.75 109.374 119.794 108.142 127.831 106.494 129.612 105.712 132.584 104.407 132.829 104.091 132.612 101.833 132.375 99.375 132.375 99.375 121.875 99.183 116.1 99.077 109.53 98.617 107.276 98.159 104.274 97.549 102.491 96.641 100.617 94.767 98.349 92.499 98.103 91.872 98.455 89.246 98.674 87.617 99.738 84.7 100.82 82.765 101.901 80.829 104.593 77.025 106.8 74.31 109.007 71.596 113.156 66.675 116.021 63.375 118.885 60.075 123.004 55.181 125.174 52.5 127.344 49.819 129.937 46.033 130.935 44.087 131.933 42.142 132.75 39.762 132.75 38.8 132.75 37.837 132.345 36.645 131.85 36.15 131.355 35.655 129.887 35.25 128.588 35.25 127.178 35.25 125.045 36.11 123.3 37.381 121.691 38.553 118.181 41.846 115.5 44.7 112.819 47.553 108.973 52.079 106.955 54.757 104.936 57.434 101.561 61.71 99.455 64.258 97.348 66.807 95.19 69.079 94.659 69.308 94.128 69.537 93.499 69.22 93.263 68.603 93.012 67.949 94.102 65.843 95.878 63.553 97.553 61.393 102.685 55.069 107.284 49.5 111.882 43.931 116.962 37.382 118.572 34.946 120.5 32.031 121.5 29.666 121.5 28.026 121.5 26.168 121.002 25.208 119.541 24.251 117.662 23.02 117.449 23.037 114.367 24.672 112.179 25.833 109.583 28.453 106.238 32.876 103.535 36.451 97.442 44.263 92.698 50.238 87.954 56.213 83.718 61.219 83.286 61.363 82.854 61.507 82.298 61.097 82.051 60.451 81.757 59.686 83.92 56.338 88.266 50.827 91.932 46.178 97.619 38.849 100.903 34.54 104.188 30.23 107.317 25.909 107.858 24.936 108.399 23.963 108.737 22.291 108.608 21.221 108.48 20.152 107.803 18.918 107.103 18.48 106.161 17.89 105.188 17.998 103.353 18.895 101.99 19.562 98.823 22.249 96.316 24.866 93.808 27.483 89.439 32.494 86.606 36 83.773 39.506 79.616 44.569 77.369 47.25 75.121 49.931 72.741 52.125 72.079 52.125 71.417 52.125 70.875 51.76 70.875 51.313 70.875 50.867 73.744 47.017 77.25 42.758 80.756 38.499 85.087 32.958 86.874 30.445 88.662 27.931 90.94 24.283 91.937 22.337 92.934 20.392 93.75 17.738 93.75 16.44 93.75 14.215 93.613 14.1 91.368 14.429 89.573 14.693 87.773 16.13 84.058 20.263 81.347 23.279 72.766 33.032 64.987 41.936 57.209 50.84 43.421 66.886 34.346 77.593 17.847 97.061 17.847 97.061 20.703 99.343 22.274 100.598 31.506 108.129 41.217 116.078 58.875 130.53 58.875 130.53 60.277 128.828 Z M41.18 64.041 C46.125 58.764 46.125 58.764 45.685 42.32 45.443 33.275 44.843 24.456 44.353 22.721 43.862 20.987 42.922 19.029 42.264 18.371 41.606 17.713 40.521 17.28 39.852 17.409 39.184 17.538 38.128 18.652 37.506 19.884 36.605 21.669 36.299 26.548 36 43.875 35.794 55.838 35.762 66.456 35.93 67.471 36.214 69.186 36.586 68.943 41.18 64.041 Z M54.559 49.083 C59.347 43.875 59.347 43.875 59.054 29.625 58.829 18.631 58.483 14.732 57.544 12.563 56.623 10.434 55.89 9.75 54.53 9.75 53.541 9.75 52.193 10.346 51.535 11.074 50.876 11.802 49.988 13.911 49.562 15.761 49.135 17.611 48.778 26.438 48.768 35.376 48.758 44.314 48.98 52.227 49.261 52.959 49.683 54.059 50.606 53.383 54.559 49.083 Z M64.28 37.858 C65.432 36.611 67.846 33.821 69.643 31.658 72.911 27.724 72.911 27.724 72.612 19.3 72.395 13.199 71.954 10.203 71.012 8.438 69.984 6.511 69.236 6 67.442 6 65.539 6 64.975 6.453 63.943 8.813 62.983 11.008 62.655 14.751 62.449 25.875 62.185 40.125 62.185 40.125 64.28 37.858 Z M82.249 17.114 C87.998 11.365 87.998 11.365 86.732 9.433 85.866 8.112 84.796 7.5 83.349 7.5 82.185 7.5 80.65 8.143 79.939 8.929 79.228 9.715 78.163 11.962 77.573 13.923 76.983 15.884 76.5 18.698 76.5 20.176 76.5 22.863 76.5 22.863 82.249 17.114 Z" fill="#000000" fill-opacity="1" stroke="none"/>
</svg>
