<?xml version="1.0" encoding="UTF-8"?>
<svg width="150px" height="150px" viewBox="0 0 150 150" xmlns="http://www.w3.org/2000/svg" xmlns:xlink="http://www.w3.org/1999/xlink" version="1.1">
 <!-- Generated by Pixelmator Pro 2.0.8 -->
 <path id="Shape" d="M42.047 107.36 C38.788 107.716 33.891 107.338 30.822 106.492 27.829 105.668 23.318 103.564 20.798 101.818 18.278 100.072 14.892 96.731 13.272 94.393 11.652 92.056 9.832 88.585 9.227 86.681 8.623 84.778 7.816 81.789 7.433 80.04 6.902 77.613 6.058 76.86 3.869 76.86 1.162 76.86 1 76.501 1 70.501 1 64.578 1.188 64.142 3.746 64.142 5.873 64.142 6.649 63.359 7.186 60.67 7.568 58.761 8.708 55.599 9.72 53.642 10.834 51.488 13.467 49.219 16.397 47.889 20.927 45.832 24.652 45.692 75 45.692 125.348 45.692 129.073 45.832 133.603 47.889 136.533 49.219 139.166 51.488 140.28 53.642 141.292 55.599 142.432 58.761 142.814 60.67 143.351 63.359 144.127 64.142 146.254 64.142 148.812 64.142 149 64.578 149 70.501 149 76.501 148.838 76.86 146.131 76.86 143.938 76.86 143.103 77.609 142.582 80.04 142.208 81.789 141.126 85.401 140.178 88.066 139.23 90.732 136.355 95.076 133.791 97.718 131.226 100.361 126.704 103.609 123.743 104.936 119.979 106.622 116.051 107.335 110.688 107.303 105.194 107.271 101.511 106.529 97.706 104.688 94.785 103.273 90.144 99.613 87.393 96.554 84.643 93.494 81.813 88.982 81.105 86.527 80.397 84.072 79.384 79.982 78.854 77.439 78.045 73.556 77.434 72.814 75.043 72.814 72.836 72.814 72.008 73.594 71.359 76.282 70.899 78.19 69.894 82.25 69.125 85.304 68.201 88.978 66.014 92.763 62.666 96.487 59.883 99.583 55.405 103.154 52.717 104.422 50.028 105.69 45.227 107.012 42.047 107.36 Z M38.904 101.096 C42.263 101.121 46.686 100.44 48.732 99.583 50.779 98.725 54.082 96.65 56.073 94.971 58.064 93.292 60.595 90.018 61.697 87.694 62.799 85.371 63.974 81.333 64.307 78.72 64.64 76.107 65.597 72.612 66.433 70.953 67.269 69.294 69.539 67.279 71.477 66.477 74.313 65.302 75.687 65.302 78.523 66.477 80.461 67.279 82.733 69.294 83.572 70.953 84.41 72.612 85.363 76.451 85.69 79.483 86.033 82.674 87.564 86.932 89.323 89.59 90.995 92.117 94.532 95.62 97.183 97.374 101.39 100.158 103.128 100.564 110.844 100.564 118.559 100.564 120.298 100.158 124.504 97.374 127.155 95.62 130.759 92.018 132.514 89.37 135.44 84.952 135.735 83.481 136.091 71.504 136.467 58.827 136.394 58.368 133.542 55.516 130.605 52.579 130.605 52.579 75 52.579 19.395 52.579 19.395 52.579 16.557 55.417 13.913 58.061 13.719 59.067 13.719 70.083 13.719 79.696 14.169 82.841 16.121 86.875 17.443 89.604 20.174 93.229 22.192 94.929 24.209 96.629 27.42 98.702 29.328 99.536 31.236 100.369 35.545 101.072 38.904 101.096 Z" fill="#000000" fill-opacity="1" stroke="none"/>
</svg>
