<svg width="565" height="220" xmlns="http://www.w3.org/2000/svg">
 <style type="text/css">.st0{fill:#FF1C7F;}
	.st1{fill:#5A1490;}
	.st2{fill:#00ADEE;}
	.st3{fill:#00C7C5;}
	.st4{fill:#FFFFFF;}
	.st5{fill:#FFD71E;}</style>

 <g>
  <title>background</title>
  <rect fill="none" id="canvas_background" height="222" width="567" y="-1" x="-1"/>
 </g>
 <g>
  <title>Layer 1</title>
  <polygon id="svg_1" points="183.70001220703125,72.70001220703125 141.79998779296875,145.29998779296875 183.70001220703125,218 267.5999755859375,218 309.5999755859375,145.29998779296875 267.5999755859375,72.70001220703125 " class="st0"/>
  <polygon id="svg_2" points="309.5999755859375,0 267.5999755859375,72.70001220703125 309.5999755859375,145.29998779296875 393.5,145.29998779296875 435.4000244140625,72.70001220703125 393.5,0 " class="st1"/>
  <polygon id="svg_3" points="141.79998779296875,0 183.70001220703125,72.70001220703125 267.5999755859375,72.70001220703125 309.5999755859375,0 " class="st2"/>
  <polygon id="svg_4" points="58,0 16,72.70001220703125 58,145.29998779296875 141.9000244140625,145.29998779296875 183.79998779296875,72.70001220703125 141.9000244140625,0 " class="st3"/>
  <path id="svg_5" d="m143.3,107.9c-3.9,1 -8.1,1.4 -12.7,1.4c-4.8,0 -9.1,-0.8 -13.1,-2.3c-4,-1.5 -7.4,-3.6 -10.3,-6.4c-2.9,-2.7 -5.1,-6 -6.8,-9.9c-1.6,-3.8 -2.4,-8.1 -2.4,-12.8c0,-4.8 0.8,-9.1 2.5,-12.9c1.7,-3.9 3.9,-7.1 6.8,-9.9c2.9,-2.7 6.3,-4.8 10.2,-6.3c3.9,-1.5 8.1,-2.2 12.7,-2.2c4.7,0 9.1,0.7 13.1,2.1c4,1.4 7.3,3.3 9.8,5.8l-9.1,10.5c-1.4,-1.6 -3.2,-3 -5.5,-4c-2.3,-1 -4.9,-1.6 -7.8,-1.6c-2.5,0 -4.8,0.5 -7,1.4c-2.1,0.9 -4,2.2 -5.5,3.9c-1.6,1.7 -2.8,3.6 -3.7,5.9c-0.9,2.3 -1.3,4.7 -1.3,7.4c0,2.7 0.4,5.3 1.2,7.6c0.8,2.3 1.9,4.3 3.5,5.9c1.5,1.7 3.4,2.9 5.7,3.9c2.3,0.9 4.9,1.4 7.8,1.4c1.7,0 3.3,-0.1 4.8,-0.4c1.5,-0.3 2.9,-0.7 4.2,-1.2l0,-10.8l-11.4,0l0,-11.6l24.5,0l0,31.5c-2.9,1.4 -6.3,2.7 -10.2,3.6" class="st4"/>
  <path id="svg_6" d="m189.9,82.1c0,-2.2 -0.7,-4.1 -2.1,-5.6c-1.4,-1.6 -3.4,-2.4 -6.2,-2.4c-1.3,0 -2.6,0.2 -3.7,0.6c-1.1,0.4 -2.1,1 -2.9,1.7c-0.8,0.7 -1.5,1.6 -2,2.6c-0.5,1 -0.8,2 -0.8,3.1l17.7,0zm12.7,5.3l0,1.7c0,0.6 0,1.1 -0.1,1.6l-30.3,0c0.1,1.2 0.5,2.2 1,3.2c0.6,1 1.3,1.8 2.3,2.5c0.9,0.7 2,1.2 3.1,1.6c1.1,0.4 2.3,0.6 3.6,0.6c2.2,0 4,-0.4 5.5,-1.2c1.5,-0.8 2.7,-1.9 3.7,-3.1l9.6,6c-2,2.9 -4.5,5.1 -7.8,6.6c-3.2,1.5 -7,2.3 -11.2,2.3c-3.1,0 -6.1,-0.5 -8.9,-1.5c-2.8,-1 -5.2,-2.4 -7.3,-4.3c-2.1,-1.9 -3.8,-4.2 -5,-6.9c-1.2,-2.7 -1.8,-5.9 -1.8,-9.4c0,-3.4 0.6,-6.5 1.8,-9.3c1.2,-2.8 2.8,-5.1 4.8,-7.1c2,-1.9 4.4,-3.4 7.1,-4.5c2.7,-1.1 5.7,-1.6 8.9,-1.6c3.1,0 5.9,0.5 8.5,1.6c2.6,1 4.8,2.5 6.6,4.5c1.8,2 3.3,4.3 4.3,7.1c1.1,2.9 1.6,6.1 1.6,9.6" class="st4"/>
  <rect id="svg_7" height="63.5" width="14" class="st4" y="44.4" x="208"/>
  <rect id="svg_8" height="63.5" width="14" class="st4" y="44.4" x="229.6"/>
  <path id="svg_9" d="m279.9,82.1c0,-2.2 -0.7,-4.1 -2.1,-5.6c-1.4,-1.6 -3.4,-2.4 -6.2,-2.4c-1.3,0 -2.6,0.2 -3.7,0.6c-1.1,0.4 -2.1,1 -2.9,1.7c-0.8,0.7 -1.5,1.6 -2,2.6c-0.5,1 -0.8,2 -0.8,3.1l17.7,0zm12.7,5.3l0,1.7c0,0.6 0,1.1 -0.1,1.6l-30.3,0c0.1,1.2 0.5,2.2 1,3.2c0.6,1 1.3,1.8 2.3,2.5c0.9,0.7 2,1.2 3.1,1.6c1.1,0.4 2.3,0.6 3.6,0.6c2.2,0 4,-0.4 5.5,-1.2c1.5,-0.8 2.7,-1.9 3.7,-3.1l9.6,6c-2,2.9 -4.5,5.1 -7.8,6.6c-3.2,1.5 -7,2.3 -11.2,2.3c-3.1,0 -6.1,-0.5 -8.9,-1.5c-2.8,-1 -5.2,-2.4 -7.3,-4.3c-2.1,-1.9 -3.8,-4.2 -5,-6.9c-1.2,-2.7 -1.8,-5.9 -1.8,-9.4c0,-3.4 0.6,-6.5 1.8,-9.3c1.2,-2.8 2.8,-5.1 4.8,-7.1c2,-1.9 4.4,-3.4 7.1,-4.5c2.7,-1.1 5.7,-1.6 8.9,-1.6c3.1,0 5.9,0.5 8.5,1.6c2.6,1 4.8,2.5 6.6,4.5c1.8,2 3.3,4.3 4.3,7.1c1.1,2.9 1.6,6.1 1.6,9.6" class="st4"/>
  <path id="svg_10" d="m324.9,77.4c-0.6,-0.2 -1.2,-0.3 -1.8,-0.3c-0.6,-0.1 -1.2,-0.1 -1.7,-0.1c-1.8,0 -3.4,0.3 -4.7,1c-1.3,0.7 -2.3,1.5 -3,2.4c-0.8,0.9 -1.3,2 -1.6,3.1c-0.3,1.1 -0.5,2.1 -0.5,2.9l0,21.4l-13.8,0l0,-41.8l13.3,0l0,6l0.2,0c1.1,-2.1 2.6,-3.9 4.5,-5.2c2,-1.4 4.2,-2 6.8,-2c0.6,0 1.1,0 1.6,0.1c0.5,0.1 1,0.1 1.3,0.3l-0.6,12.2z" class="st4"/>
  <path id="svg_11" d="m330.2,66.5l0,-0.8l0.5,0c0.1,0 0.3,0 0.4,0.1c0.1,0.1 0.2,0.2 0.2,0.3c0,0.2 -0.1,0.3 -0.2,0.3c-0.1,0.1 -0.3,0.1 -0.4,0.1l-0.5,0zm-0.5,1.6l0.5,0l0,-1.2l0.4,0l0.7,1.2l0.6,0l-0.8,-1.2c0.2,0 0.4,-0.1 0.5,-0.3c0.1,-0.1 0.2,-0.3 0.2,-0.5c0,-0.2 0,-0.3 -0.1,-0.4c-0.1,-0.1 -0.1,-0.2 -0.2,-0.3c-0.1,-0.1 -0.2,-0.1 -0.3,-0.1c-0.1,0 -0.3,0 -0.4,0l-1,0l0,2.8l-0.1,0zm-1,-2.2c0.1,-0.3 0.3,-0.5 0.5,-0.7c0.2,-0.2 0.4,-0.3 0.7,-0.5c0.3,-0.1 0.5,-0.2 0.8,-0.2s0.6,0.1 0.8,0.2c0.3,0.1 0.5,0.3 0.7,0.5c0.2,0.2 0.3,0.4 0.5,0.7c0.1,0.3 0.2,0.5 0.2,0.8c0,0.3 -0.1,0.6 -0.2,0.8c-0.1,0.3 -0.3,0.5 -0.5,0.7c-0.2,0.2 -0.4,0.3 -0.7,0.5c-0.3,0.1 -0.5,0.2 -0.8,0.2s-0.6,-0.1 -0.8,-0.2c-0.3,-0.1 -0.5,-0.3 -0.7,-0.5c-0.2,-0.2 -0.3,-0.4 -0.5,-0.7c-0.1,-0.3 -0.2,-0.5 -0.2,-0.8c0,-0.3 0.1,-0.5 0.2,-0.8m-0.4,1.8c0.1,0.3 0.3,0.6 0.5,0.8c0.2,0.2 0.5,0.4 0.8,0.5c0.3,0.1 0.6,0.2 1,0.2s0.7,-0.1 1,-0.2c0.3,-0.1 0.6,-0.3 0.8,-0.5c0.2,-0.2 0.4,-0.5 0.5,-0.8c0.1,-0.3 0.2,-0.6 0.2,-1c0,-0.3 -0.1,-0.7 -0.2,-1c-0.1,-0.3 -0.3,-0.6 -0.5,-0.8c-0.2,-0.2 -0.5,-0.4 -0.8,-0.5s-0.6,-0.2 -1,-0.2s-0.7,0.1 -1,0.2s-0.6,0.3 -0.8,0.5c-0.2,0.2 -0.4,0.5 -0.5,0.8c-0.1,0.3 -0.2,0.6 -0.2,1c0,0.4 0.1,0.7 0.2,1" class="st4"/>
  <polygon id="svg_12" points="393.5,0 435.4000244140625,72.70001220703125 519.4000244140625,72.70001220703125 561.300048828125,0 " class="st5"/>
 </g>
</svg>