<?xml version="1.0" encoding="UTF-8"?>
<svg id="Layer_1" xmlns="http://www.w3.org/2000/svg" version="1.1" viewBox="0 0 200 200">
  <!-- Generator: Adobe Illustrator 29.4.0, SVG Export Plug-In . SVG Version: 2.1.0 Build 152)  -->
  <defs>
    <style>
      .st0 {
        fill: #5a2684;
      }

      .st1 {
        fill: #fff;
        font-family: NeusaNextStdTrial-CompactRegular, 'Neusa Next Std Trial';
        font-size: 15px;
      }
    </style>
  </defs>
  <path class="st0" d="M59.9,88.3v67c0,8.3,6.7,15,15,15h50.3c8.3,0,15-6.7,15-15v-67H59.9Z"/>
  <path class="st0" d="M60.5,76c-2.3,0-4.2,1.9-4.2,4.2v4.2h87.4v-4.2c0-2.3-1.9-4.2-4.2-4.2H60.5Z"/>
  <path class="st0" d="M149.8,84.5c-1.4,0-2.5-1.1-2.5-2.5,0-26.1-21.2-47.3-47.3-47.3s-47.3,21.2-47.3,47.3-1.1,2.5-2.5,2.5-2.5-1.1-2.5-2.5c0-28.8,23.5-52.3,52.3-52.3s52.3,23.5,52.3,52.3-1.1,2.5-2.5,2.5"/>
  <text class="st1" transform="translate(94.4 146.8)"><tspan x="0" y="0">10</tspan></text>
</svg>