<?xml version="1.0" encoding="UTF-8"?>
<svg id="Layer_1" xmlns="http://www.w3.org/2000/svg" version="1.1" viewBox="0 0 200 200">
  <!-- Generator: Adobe Illustrator 29.4.0, SVG Export Plug-In . SVG Version: 2.1.0 Build 152)  -->
  <defs>
    <style>
      .st0 {
        fill: #5a2684;
      }

      .st1 {
        fill: #fff;
        font-family: NeusaNextStdTrial-CompactRegular, 'Neusa Next Std Trial';
        font-size: 15px;
      }
    </style>
  </defs>
  <path class="st0" d="M80.3,48.2v3.7c0,.9.7,1.7,1.7,1.7h4.8v16.5h0c.7,0,1.3-.4,1.6-1.1l3.7-8.9h3.5v8.3h12.9v-5.4c0-1.8.9-3.4,2.4-4.3l4.7-2.8c.9-.5,1.1-1.7.4-2.5l-3.8-4.4c-1.3-1.5-3.1-2.3-5.1-2.3h-25.3c-.9,0-1.7.7-1.7,1.7"/>
  <path class="st0" d="M117.5,82.9l-8.4-11.7h-13.5l-8.4,11.7c-1.4,2-2.2,4.4-2.2,6.8v53.7c0,5.5,4.5,10,10,10h14.7c5.5,0,10-4.5,10-10v-53.7c0-2.5-.8-4.8-2.2-6.8Z"/>
  <text class="st1" transform="translate(100.1 125.3)"><tspan x="0" y="0">1</tspan></text>
</svg>