<?xml version="1.0" encoding="UTF-8"?>
<svg id="Layer_1" xmlns="http://www.w3.org/2000/svg" version="1.1" viewBox="0 0 200 200">
  <!-- Generator: Adobe Illustrator 29.4.0, SVG Export Plug-In . SVG Version: 2.1.0 Build 152)  -->
  <defs>
    <style>
      .st0 {
        fill: #5a2684;
      }

      .st1 {
        fill: #fff;
        font-family: NeusaNextStdTrial-CompactRegular, 'Neusa Next Std Trial';
        font-size: 15px;
      }
    </style>
  </defs>
  <g>
    <path class="st0" d="M105.3,64.9h-10.6c-.8,0-1.5-.7-1.5-1.5v-3.3c0-.8.7-1.5,1.5-1.5h10.6c.8,0,1.5.7,1.5,1.5v3.3c0,.8-.7,1.5-1.5,1.5"/>
    <path class="st0" d="M93.2,67.6l-6.8,4.4c-2,1.3-3.2,3.6-3.2,6v56.4c0,3.9,3.1,7.1,7,7.1h19.6c3.9,0,7-3.2,7-7.1v-56.4c0-2.4-1.2-4.7-3.2-6l-6.8-4.4h-13.6Z"/>
  </g>
  <text class="st1" transform="translate(90.1 112.9)"><tspan x="0" y="0">500</tspan></text>
</svg>