<?xml version="1.0" encoding="UTF-8"?>
<svg id="Layer_1" xmlns="http://www.w3.org/2000/svg" version="1.1" viewBox="0 0 200 200">
  <!-- Generator: Adobe Illustrator 29.4.0, SVG Export Plug-In . SVG Version: 2.1.0 Build 152)  -->
  <defs>
    <style>
      .st0 {
        fill: #5a2684;
      }

      .st1 {
        fill: #fff;
        font-family: NeusaNextStdTrial-CompactRegular, 'Neusa Next Std Trial';
        font-size: 15px;
      }
    </style>
  </defs>
  <rect class="st0" x="72.9" y="46.7" width="16.4" height="7.6" rx="1.8" ry="1.8"/>
  <path class="st0" d="M122.3,47.3h-18.9c-2.6,0-5.1,1.1-6.8,3.1l-3.3,3.8c-1,1.2-2.5,1.9-4.1,1.9h-15.9c-1.8,0-3.3,1.3-3.5,3l-1.3,8.5c-.5,3.6-.8,7.3-.8,11v60.8c0,7.9,6.4,14.3,14.3,14.3h42c7.9,0,14.3-6.4,14.3-14.3V63.3c0-8.9-7.2-16.1-16.1-16.1ZM126.4,60.1c0,2-1.6,3.6-3.6,3.6h-17.4c-2,0-3.6-1.6-3.6-3.6v-3.6c0-2,1.6-3.6,3.6-3.6h17.4c2,0,3.6,1.6,3.6,3.6v3.6Z"/>
  <text class="st1" transform="translate(99.8 125.4)"><tspan x="0" y="0">5</tspan></text>
</svg>