<?xml version="1.0" encoding="utf-8"?>
<!-- Generator: Adobe Illustrator 22.0.1, SVG Export Plug-In . SVG Version: 6.00 Build 0)  -->
<svg version="1.1" id="Layer_1" xmlns="http://www.w3.org/2000/svg" xmlns:xlink="http://www.w3.org/1999/xlink" x="0px" y="0px"
	 viewBox="0 0 1280 1024" style="enable-background:new 0 0 1280 1024;" xml:space="preserve">
<style type="text/css">
	.st0{fill:#FFFFFF;}
</style>
<path class="st0" d="M365,530.1c-13.1,3.3-27.4,4.9-42.9,4.9c-16,0-30.8-2.6-44.3-7.8c-13.5-5.2-25.1-12.5-34.8-22
	c-9.7-9.5-17.3-20.8-22.8-34c-5.5-13.2-8.2-27.9-8.2-44.1c0-16.4,2.8-31.3,8.4-44.6c5.6-13.3,13.3-24.6,23.1-34
	c9.8-9.4,21.3-16.5,34.5-21.6c13.2-5,27.5-7.5,42.8-7.5c15.9,0,30.6,2.5,44.2,7.4c13.6,4.9,24.6,11.5,33.1,19.8l-30.6,35.6
	c-4.7-5.6-11-10.2-18.7-13.7c-7.7-3.6-16.5-5.4-26.3-5.4c-8.5,0-16.3,1.6-23.5,4.8c-7.2,3.2-13.4,7.6-18.7,13.3
	c-5.3,5.7-9.4,12.4-12.3,20.3c-2.9,7.8-4.4,16.3-4.4,25.6c0,9.5,1.3,18.1,4,26c2.6,7.9,6.6,14.7,11.7,20.4
	c5.2,5.7,11.6,10.1,19.2,13.3c7.6,3.2,16.4,4.8,26.2,4.8c5.7,0,11-0.4,16.1-1.3c5.1-0.9,9.8-2.3,14.2-4.2v-37.3h-38.2v-39.9h82.7
	v108.5C389.6,522.6,378.1,526.8,365,530.1"/>
<path class="st0" d="M522.3,441.2c0-7.5-2.3-14-6.9-19.4c-4.6-5.4-11.6-8.1-20.8-8.1c-4.5,0-8.7,0.7-12.5,2.2s-7.1,3.4-9.9,5.9
	c-2.8,2.5-5.1,5.5-6.8,8.8c-1.7,3.4-2.6,6.9-2.8,10.6H522.3z M565,459.5v5.8c0,1.9-0.1,3.8-0.3,5.5H462.5c0.4,4,1.6,7.7,3.5,11
	c2,3.3,4.5,6.1,7.6,8.5c3.1,2.4,6.6,4.3,10.5,5.6c3.9,1.3,7.9,2,12,2c7.4,0,13.6-1.4,18.7-4.2c5.1-2.8,9.2-6.4,12.5-10.9l32.3,20.8
	c-6.6,9.8-15.3,17.4-26.2,22.7c-10.9,5.3-23.5,8-37.8,8c-10.6,0-20.6-1.7-30-5.1c-9.4-3.4-17.7-8.3-24.8-14.8
	c-7.1-6.5-12.7-14.4-16.7-23.9c-4.1-9.4-6.1-20.3-6.1-32.4c0-11.8,2-22.4,5.9-32c4-9.5,9.3-17.7,16.1-24.3
	c6.8-6.7,14.8-11.8,24.1-15.5c9.2-3.7,19.3-5.5,30-5.5c10.4,0,19.9,1.8,28.6,5.4c8.7,3.6,16.1,8.7,22.4,15.5
	c6.2,6.8,11.1,15,14.6,24.6C563.3,436.1,565,447.1,565,459.5"/>
<rect x="583.2" y="311" class="st0" width="47.3" height="218.8"/>
<rect x="656.2" y="311" class="st0" width="47.3" height="218.8"/>
<path class="st0" d="M825.8,441.2c0-7.5-2.3-14-6.9-19.4c-4.6-5.4-11.6-8.1-20.8-8.1c-4.5,0-8.7,0.7-12.5,2.2
	c-3.8,1.4-7.1,3.4-9.9,5.9c-2.8,2.5-5.1,5.5-6.8,8.8c-1.7,3.4-2.6,6.9-2.8,10.6H825.8z M868.5,459.5v5.8c0,1.9-0.1,3.8-0.3,5.5
	H766.1c0.4,4,1.6,7.7,3.5,11c2,3.3,4.5,6.1,7.6,8.5c3.1,2.4,6.6,4.3,10.5,5.6c3.9,1.3,7.9,2,12,2c7.4,0,13.6-1.4,18.7-4.2
	c5.1-2.8,9.3-6.4,12.5-10.9l32.3,20.8c-6.6,9.8-15.3,17.4-26.2,22.7c-10.9,5.3-23.5,8-37.8,8c-10.6,0-20.6-1.7-30-5.1
	c-9.4-3.4-17.7-8.3-24.8-14.8c-7.1-6.5-12.7-14.4-16.7-23.9c-4.1-9.4-6.1-20.3-6.1-32.4c0-11.8,2-22.4,5.9-32
	c4-9.5,9.3-17.7,16.1-24.3c6.8-6.7,14.8-11.8,24.1-15.5c9.2-3.7,19.2-5.5,30-5.5c10.4,0,19.9,1.8,28.6,5.4
	c8.7,3.6,16.1,8.7,22.4,15.5c6.2,6.8,11.1,15,14.6,24.6C866.8,436.1,868.5,447.1,868.5,459.5"/>
<path class="st0" d="M977.6,424.7c-2.1-0.6-4.1-1-6.1-1.2c-2-0.2-3.9-0.3-5.8-0.3c-6.2,0-11.5,1.2-15.7,3.5
	c-4.2,2.3-7.6,5.1-10.2,8.4c-2.5,3.3-4.4,6.8-5.5,10.7c-1.1,3.8-1.7,7.2-1.7,10.1v73.9h-46.4v-144h44.7v20.8h0.6
	c3.6-7.4,8.7-13.4,15.3-18.1c6.6-4.7,14.3-7,22.9-7c1.9,0,3.7,0.1,5.5,0.3c1.8,0.2,3.3,0.5,4.4,0.9L977.6,424.7z"/>
<path class="st0" d="M995.3,387.4v-2.8h1.6c0.4,0,0.9,0.1,1.3,0.3c0.4,0.2,0.6,0.5,0.6,1.1c0,0.6-0.2,1-0.7,1.2
	c-0.4,0.2-0.9,0.3-1.4,0.3H995.3z M993.6,392.9h1.7v-4.1h1.2l2.2,4.1h2.1l-2.6-4.3c0.7-0.2,1.2-0.5,1.6-0.9c0.4-0.4,0.6-1,0.6-1.7
	c0-0.5-0.1-1-0.3-1.3c-0.2-0.4-0.5-0.7-0.8-0.9c-0.3-0.2-0.7-0.4-1.1-0.5c-0.4-0.1-0.9-0.2-1.3-0.2h-3.4V392.9z M990.3,385.2
	c0.4-0.9,0.9-1.7,1.5-2.3c0.7-0.7,1.4-1.2,2.3-1.6c0.9-0.4,1.8-0.6,2.8-0.6c1,0,1.9,0.2,2.8,0.6c0.9,0.4,1.6,0.9,2.3,1.6
	c0.6,0.7,1.2,1.4,1.5,2.3c0.4,0.9,0.6,1.8,0.6,2.9c0,1-0.2,1.9-0.6,2.8c-0.4,0.9-0.9,1.7-1.5,2.3c-0.7,0.7-1.4,1.2-2.3,1.6
	c-0.9,0.4-1.8,0.6-2.8,0.6c-1,0-1.9-0.2-2.8-0.6c-0.9-0.4-1.6-0.9-2.3-1.6c-0.6-0.7-1.2-1.5-1.5-2.3c-0.4-0.9-0.6-1.8-0.6-2.8
	C989.8,387.1,990,386.1,990.3,385.2 M989.1,391.4c0.4,1,1.1,2,1.8,2.7c0.8,0.8,1.7,1.4,2.7,1.8c1,0.4,2.1,0.7,3.3,0.7
	c1.2,0,2.3-0.2,3.3-0.7c1-0.4,1.9-1.1,2.7-1.8c0.8-0.8,1.4-1.7,1.8-2.7c0.5-1,0.7-2.2,0.7-3.4s-0.2-2.3-0.7-3.4
	c-0.4-1.1-1.1-2-1.8-2.8c-0.8-0.8-1.7-1.4-2.7-1.9c-1-0.5-2.1-0.7-3.3-0.7c-1.2,0-2.3,0.2-3.3,0.7c-1,0.5-1.9,1.1-2.7,1.9
	c-0.8,0.8-1.4,1.7-1.8,2.8c-0.4,1.1-0.7,2.2-0.7,3.4S988.6,390.4,989.1,391.4"/>
</svg>
