<?xml version="1.0" encoding="UTF-8" standalone="no"?>
<!DOCTYPE svg PUBLIC "-//W3C//DTD SVG 1.1//EN" "http://www.w3.org/Graphics/SVG/1.1/DTD/svg11.dtd">
<svg version="1.1" xmlns="http://www.w3.org/2000/svg" xmlns:xlink="http://www.w3.org/1999/xlink" preserveAspectRatio="xMidYMid meet" viewBox="0 0 200 200" width="200" height="200"><defs><path d="M108.19 0.33L112.22 0.74L116.2 1.31L120.12 2.04L124 2.91L127.81 3.94L131.57 5.11L135.26 6.42L138.88 7.87L142.43 9.46L145.91 11.18L149.31 13.03L152.63 15.01L155.87 17.1L159.02 19.32L162.07 21.66L165.04 24.1L167.91 26.66L170.67 29.33L173.34 32.09L175.9 34.96L178.34 37.93L180.68 40.98L182.9 44.13L184.99 47.37L186.97 50.69L188.82 54.09L190.54 57.57L192.13 61.12L193.58 64.74L194.89 68.43L196.06 72.19L197.09 76L197.96 79.88L198.69 83.8L199.26 87.78L199.67 91.81L199.92 95.89L200 100L199.92 104.11L199.67 108.19L199.26 112.22L198.69 116.2L197.96 120.12L197.09 124L196.06 127.81L194.89 131.57L193.58 135.26L192.13 138.88L190.54 142.43L188.82 145.91L186.97 149.31L184.99 152.63L182.9 155.87L180.68 159.02L178.34 162.07L175.9 165.04L173.34 167.91L170.67 170.67L167.91 173.34L165.04 175.9L162.07 178.34L159.02 180.68L155.87 182.9L152.63 184.99L149.31 186.97L145.91 188.82L142.43 190.54L138.88 192.13L135.26 193.58L131.57 194.89L127.81 196.06L124 197.09L120.12 197.96L116.2 198.69L112.22 199.26L108.19 199.67L104.11 199.92L100 200L95.89 199.92L91.81 199.67L87.78 199.26L83.8 198.69L79.88 197.96L76 197.09L72.19 196.06L68.43 194.89L64.74 193.58L61.12 192.13L57.57 190.54L54.09 188.82L50.69 186.97L47.37 184.99L44.13 182.9L40.98 180.68L37.93 178.34L34.96 175.9L32.09 173.34L29.33 170.67L26.66 167.91L24.1 165.04L21.66 162.07L19.32 159.02L17.1 155.87L15.01 152.63L13.03 149.31L11.18 145.91L9.46 142.43L7.87 138.88L6.42 135.26L5.11 131.57L3.94 127.81L2.91 124L2.04 120.12L1.31 116.2L0.74 112.22L0.33 108.19L0.08 104.11L0 100L0.08 95.89L0.33 91.81L0.74 87.78L1.31 83.8L2.04 79.88L2.91 76L3.94 72.19L5.11 68.43L6.42 64.74L7.87 61.12L9.46 57.57L11.18 54.09L13.03 50.69L15.01 47.37L17.1 44.13L19.32 40.98L21.66 37.93L24.1 34.96L26.66 32.09L29.33 29.33L32.09 26.66L34.96 24.1L37.93 21.66L40.98 19.32L44.13 17.1L47.37 15.01L50.69 13.03L54.09 11.18L57.57 9.46L61.12 7.87L64.74 6.42L68.43 5.11L72.19 3.94L76 2.91L79.88 2.04L83.8 1.31L87.78 0.74L91.81 0.33L95.89 0.08L100 0L104.11 0.08L108.19 0.33ZM97.49 48.27L96.06 48.36L94.67 48.49L93.31 48.66L91.99 48.87L90.7 49.11L89.45 49.39L88.23 49.71L87.05 50.06L85.91 50.45L84.8 50.87L83.73 51.33L82.69 51.83L81.69 52.36L80.72 52.93L79.8 53.53L78.91 54.17L78.06 54.84L77.24 55.54L76.46 56.29L75.73 57.06L75.03 57.87L74.36 58.71L73.74 59.59L73.15 60.5L72.61 61.44L72.1 62.42L71.64 63.43L71.21 64.48L70.82 65.55L70.47 66.66L70.16 67.8L69.9 68.97L69.67 70.18L69.48 71.42L69.34 72.68L69.23 73.98L69.17 75.32L69.15 76.68L69.15 95.5L69.15 95.57L69.15 95.64L69.15 95.71L69.14 95.79L69.14 95.86L69.13 95.93L69.12 96L69.12 96.07L69.11 96.14L69.09 96.21L69.08 96.29L69.07 96.36L69.06 96.43L69.04 96.5L69.02 96.57L69 96.64L68.99 96.7L68.97 96.77L68.94 96.84L68.92 96.91L68.9 96.98L68.87 97.04L68.84 97.11L68.82 97.18L68.79 97.24L68.76 97.31L68.73 97.37L68.69 97.44L68.66 97.5L68.62 97.56L68.59 97.63L68.55 97.69L68.51 97.75L68.47 97.81L68.42 97.87L68.38 97.93L68.34 97.99L68.29 98.04L68.24 98.1L68.19 98.15L68.07 98.31L67.94 98.47L67.83 98.63L67.71 98.79L67.6 98.95L67.49 99.12L67.39 99.28L67.29 99.45L67.19 99.62L67.1 99.79L67.01 99.97L66.93 100.14L66.85 100.32L66.77 100.49L66.69 100.67L66.62 100.85L66.56 101.03L66.5 101.21L66.44 101.39L66.38 101.58L66.33 101.76L66.29 101.95L66.24 102.13L66.2 102.32L66.17 102.51L66.14 102.7L66.11 102.89L66.09 103.08L66.07 103.27L66.05 103.46L66.04 103.65L66.04 103.84L66.03 104.03L66.03 104.23L66.04 104.42L66.05 104.61L66.06 104.81L66.08 105L66.1 105.19L66.13 105.39L66.16 105.58L66.19 105.77L66.23 105.96L66.27 106.15L66.31 106.34L66.36 106.53L66.41 106.71L66.47 106.9L66.53 107.08L66.59 107.26L66.66 107.44L66.73 107.62L66.8 107.79L66.88 107.97L66.96 108.14L67.04 108.31L67.13 108.48L67.22 108.65L67.31 108.81L67.41 108.98L67.51 109.14L67.61 109.3L67.72 109.45L67.83 109.61L67.94 109.76L68.05 109.91L68.17 110.06L68.29 110.2L68.42 110.34L68.54 110.48L68.67 110.62L68.81 110.76L68.94 110.89L69.08 111.02L69.22 111.14L69.36 111.27L69.51 111.39L69.66 111.51L69.81 111.62L69.96 111.73L70.02 111.78L70.08 111.82L70.14 111.87L70.2 111.92L70.26 111.97L70.31 112.01L70.37 112.06L70.42 112.11L70.48 112.16L70.53 112.22L70.58 112.27L70.63 112.32L70.68 112.38L70.73 112.43L70.78 112.48L70.82 112.54L70.87 112.6L70.91 112.65L70.95 112.71L71 112.77L71.04 112.83L71.08 112.88L71.12 112.94L71.15 113L71.19 113.06L71.22 113.13L71.26 113.19L71.29 113.25L71.32 113.31L71.35 113.37L71.38 113.44L71.41 113.5L71.44 113.56L71.46 113.63L71.49 113.69L71.51 113.76L71.53 113.82L71.55 113.89L71.57 113.96L71.59 114.02L71.77 114.66L71.95 115.3L72.15 115.93L72.34 116.55L72.55 117.17L72.76 117.78L72.97 118.39L73.19 118.99L73.42 119.59L73.66 120.18L73.89 120.77L74.14 121.35L74.39 121.93L74.64 122.49L74.91 123.06L75.17 123.62L75.44 124.17L75.72 124.71L76 125.25L76.29 125.78L76.58 126.31L76.88 126.83L77.19 127.35L77.5 127.85L77.81 128.35L78.13 128.85L78.45 129.34L78.78 129.82L79.11 130.29L79.45 130.76L79.8 131.22L80.15 131.68L80.5 132.12L80.86 132.57L81.22 133L81.59 133.42L81.96 133.84L82.33 134.25L82.71 134.66L83.1 135.06L83.16 135.12L83.22 135.18L83.27 135.24L83.33 135.31L83.38 135.37L83.44 135.44L83.49 135.5L83.53 135.57L83.58 135.64L83.63 135.7L83.67 135.77L83.71 135.84L83.75 135.91L83.79 135.98L83.83 136.05L83.87 136.13L83.9 136.2L83.93 136.27L83.96 136.35L83.99 136.42L84.02 136.5L84.05 136.57L84.07 136.65L84.1 136.72L84.12 136.8L84.14 136.88L84.16 136.96L84.18 137.03L84.2 137.11L84.21 137.19L84.22 137.27L84.24 137.35L84.25 137.43L84.26 137.51L84.26 137.6L84.27 137.68L84.27 137.76L84.28 137.84L84.28 137.92L84.28 138.01L84.28 146.42L84.28 146.45L84.28 146.49L84.28 146.52L84.28 146.55L84.28 146.59L84.28 146.62L84.27 146.65L84.27 146.69L84.27 146.72L84.27 146.75L84.26 146.78L84.26 146.82L84.26 146.85L84.25 146.88L84.25 146.91L84.25 146.95L84.24 146.98L84.24 147.01L84.23 147.04L84.23 147.08L84.22 147.11L84.21 147.14L84.21 147.17L84.2 147.2L84.19 147.23L84.19 147.26L84.18 147.29L84.17 147.33L84.16 147.36L84.16 147.39L84.15 147.42L84.14 147.45L84.13 147.48L84.12 147.5L84.11 147.53L84.1 147.56L84.09 147.59L84.08 147.62L84.07 147.65L84.06 147.68L83.95 148.04L83.82 148.41L83.67 148.79L83.5 149.17L83.3 149.57L83.07 149.98L82.82 150.39L82.53 150.82L82.21 151.25L81.86 151.7L81.46 152.16L81.03 152.63L80.55 153.12L80.03 153.61L79.47 154.13L78.86 154.65L78.2 155.19L77.48 155.75L76.72 156.32L75.89 156.91L75.01 157.51L74.07 158.14L73.07 158.78L72.01 159.43L70.88 160.11L69.68 160.81L68.41 161.52L67.07 162.26L65.65 163.02L64.16 163.79L62.6 164.59L60.95 165.41L59.22 166.26L57.4 167.12L55.51 168.02L53.52 168.93L51.44 169.87L49.27 170.83L47.01 171.83L44.65 172.84L45.81 173.71L46.99 174.57L48.18 175.4L49.39 176.22L50.61 177.01L51.84 177.79L53.08 178.55L54.34 179.29L55.61 180.01L56.89 180.71L58.18 181.39L59.49 182.05L60.81 182.69L62.14 183.31L63.48 183.91L64.83 184.48L66.19 185.04L67.56 185.57L68.95 186.09L70.34 186.58L71.75 187.05L73.16 187.49L74.58 187.92L76.02 188.32L77.46 188.7L78.91 189.06L80.37 189.39L81.84 189.7L83.32 189.98L84.8 190.25L86.3 190.48L87.8 190.7L89.31 190.89L90.83 191.05L92.35 191.19L93.88 191.31L95.42 191.4L96.96 191.46L98.52 191.5L100.07 191.51L101.64 191.5L103.2 191.46L104.76 191.39L106.31 191.3L107.85 191.19L109.38 191.04L110.91 190.87L112.43 190.68L113.94 190.46L115.44 190.22L116.94 189.95L118.42 189.66L119.9 189.35L121.37 189.01L122.83 188.64L124.28 188.26L125.72 187.85L127.15 187.42L128.57 186.96L129.98 186.49L131.38 185.99L132.77 185.46L134.15 184.92L135.52 184.36L136.88 183.77L138.23 183.16L139.56 182.53L140.88 181.88L142.2 181.21L143.5 180.52L144.78 179.81L146.06 179.08L147.32 178.33L148.57 177.56L149.81 176.77L151.03 175.96L152.24 175.14L153.44 174.29L154.62 173.43L155.79 172.55L153.16 171.4L150.64 170.28L148.25 169.19L145.98 168.14L143.82 167.12L141.77 166.14L139.83 165.18L138 164.26L136.28 163.36L134.65 162.5L133.12 161.66L131.68 160.85L130.33 160.07L129.07 159.32L127.89 158.6L126.8 157.9L125.78 157.23L124.84 156.58L123.97 155.96L123.17 155.36L122.44 154.79L121.77 154.24L121.16 153.71L120.6 153.2L120.1 152.72L119.65 152.26L119.24 151.82L118.89 151.4L118.57 151L118.29 150.62L118.04 150.25L117.83 149.91L117.64 149.58L117.48 149.27L117.35 148.98L117.23 148.7L117.13 148.44L117.05 148.2L116.97 147.97L116.9 147.75L116.89 147.72L116.88 147.68L116.87 147.65L116.86 147.62L116.85 147.59L116.84 147.55L116.83 147.52L116.82 147.49L116.81 147.46L116.8 147.43L116.8 147.4L116.79 147.37L116.78 147.34L116.77 147.3L116.77 147.27L116.76 147.24L116.75 147.21L116.75 147.18L116.74 147.15L116.73 147.12L116.73 147.09L116.72 147.06L116.72 147.03L116.71 147L116.71 146.97L116.71 146.94L116.7 146.91L116.7 146.88L116.7 146.85L116.69 146.82L116.69 146.78L116.69 146.75L116.69 146.72L116.68 146.69L116.68 146.66L116.68 146.63L116.68 146.59L116.68 146.56L116.68 146.53L116.68 146.49L116.68 138.08L116.68 138L116.68 137.92L116.69 137.83L116.69 137.75L116.7 137.67L116.71 137.59L116.72 137.51L116.73 137.43L116.74 137.35L116.76 137.27L116.78 137.19L116.79 137.11L116.81 137.03L116.84 136.95L116.86 136.87L116.88 136.8L116.91 136.72L116.93 136.64L116.96 136.57L116.99 136.49L117.02 136.42L117.06 136.35L117.09 136.27L117.13 136.2L117.16 136.13L117.2 136.06L117.24 135.99L117.28 135.92L117.32 135.85L117.36 135.78L117.41 135.71L117.45 135.64L117.5 135.57L117.55 135.51L117.6 135.44L117.65 135.38L117.7 135.32L117.75 135.25L117.8 135.19L117.86 135.13L118.24 134.73L118.63 134.33L119 133.92L119.37 133.5L119.74 133.07L120.1 132.63L120.46 132.19L120.81 131.74L121.15 131.29L121.49 130.83L121.83 130.36L122.16 129.88L122.49 129.4L122.81 128.91L123.13 128.41L123.44 127.91L123.74 127.4L124.04 126.88L124.34 126.36L124.63 125.83L124.92 125.3L125.2 124.76L125.47 124.21L125.74 123.66L126 123.1L126.26 122.54L126.52 121.97L126.76 121.39L127.01 120.81L127.24 120.23L127.47 119.64L127.7 119.04L127.92 118.44L128.13 117.83L128.34 117.22L128.54 116.61L128.74 115.99L128.93 115.36L129.12 114.73L129.3 114.1L129.32 114.02L129.34 113.95L129.37 113.88L129.39 113.81L129.42 113.74L129.45 113.67L129.47 113.61L129.5 113.54L129.53 113.47L129.56 113.41L129.59 113.34L129.63 113.27L129.66 113.21L129.69 113.15L129.73 113.08L129.76 113.02L129.8 112.96L129.84 112.9L129.88 112.84L129.92 112.78L129.96 112.72L130 112.66L130.04 112.6L130.09 112.54L130.13 112.49L130.18 112.43L130.22 112.38L130.27 112.32L130.32 112.27L130.37 112.22L130.42 112.17L130.47 112.11L130.52 112.06L130.58 112.01L130.63 111.97L130.69 111.92L130.74 111.87L130.8 111.82L130.86 111.78L130.92 111.73L131.08 111.62L131.23 111.51L131.38 111.39L131.52 111.27L131.67 111.14L131.81 111.02L131.94 110.89L132.08 110.76L132.21 110.62L132.34 110.48L132.47 110.34L132.59 110.2L132.71 110.06L132.83 109.91L132.95 109.76L133.06 109.61L133.17 109.45L133.28 109.3L133.38 109.14L133.48 108.98L133.57 108.81L133.67 108.65L133.76 108.48L133.85 108.31L133.93 108.14L134.01 107.97L134.09 107.79L134.16 107.62L134.23 107.44L134.3 107.26L134.36 107.08L134.42 106.9L134.47 106.71L134.53 106.53L134.57 106.34L134.62 106.15L134.66 105.96L134.7 105.77L134.73 105.58L134.76 105.39L134.79 105.19L134.81 105L134.82 104.81L134.84 104.61L134.85 104.42L134.85 104.23L134.85 104.03L134.85 103.84L134.84 103.65L134.83 103.46L134.82 103.27L134.8 103.08L134.77 102.89L134.75 102.7L134.72 102.51L134.68 102.32L134.64 102.13L134.6 101.95L134.55 101.76L134.5 101.58L134.45 101.39L134.39 101.21L134.33 101.03L134.26 100.85L134.19 100.67L134.12 100.49L134.04 100.32L133.96 100.14L133.87 99.97L133.78 99.79L133.69 99.62L133.6 99.45L133.5 99.28L133.39 99.12L133.28 98.95L133.17 98.79L133.06 98.63L132.94 98.47L132.82 98.31L132.69 98.15L132.65 98.1L132.61 98.04L132.56 97.99L132.52 97.93L132.48 97.87L132.44 97.81L132.4 97.75L132.37 97.69L132.33 97.63L132.29 97.56L132.26 97.5L132.23 97.44L132.19 97.37L132.16 97.31L132.13 97.24L132.1 97.18L132.07 97.11L132.04 97.04L132.02 96.98L131.99 96.91L131.97 96.84L131.95 96.77L131.92 96.7L131.9 96.64L131.88 96.57L131.86 96.5L131.85 96.43L131.83 96.36L131.81 96.29L131.8 96.21L131.79 96.14L131.78 96.07L131.77 96L131.76 95.93L131.75 95.86L131.75 95.79L131.74 95.71L131.74 95.64L131.74 95.57L131.73 95.5L131.73 76.68L131.71 75.3L131.65 73.95L131.55 72.64L131.41 71.36L131.23 70.12L131.01 68.9L130.74 67.72L130.44 66.57L130.1 65.46L129.72 64.38L129.3 63.34L128.84 62.32L128.34 61.35L127.8 60.4L127.22 59.49L126.61 58.62L125.95 57.78L125.26 56.97L124.53 56.2L123.75 55.46L122.95 54.76L122.1 54.09L121.21 53.46L120.29 52.86L119.33 52.3L118.33 51.78L117.29 51.29L116.22 50.83L115.11 50.41L113.96 50.03L112.77 49.68L111.55 49.37L110.29 49.09L108.99 48.86L107.66 48.65L106.29 48.49L104.88 48.36L103.44 48.27L101.96 48.21L100.44 48.19L98.95 48.21L97.49 48.27ZM92.5 8.79L88.81 9.17L85.17 9.69L81.57 10.35L78.03 11.15L74.54 12.09L71.1 13.17L67.72 14.37L64.4 15.7L61.15 17.15L57.97 18.73L54.86 20.42L51.82 22.23L48.86 24.16L45.98 26.19L43.18 28.33L40.47 30.57L37.85 32.91L35.31 35.35L32.88 37.89L30.54 40.51L28.3 43.23L26.16 46.03L24.13 48.91L22.21 51.88L20.41 54.92L18.71 58.03L17.14 61.21L15.69 64.47L14.36 67.78L13.16 71.16L12.09 74.6L11.15 78.1L10.35 81.65L9.69 85.24L9.17 88.89L8.79 92.58L8.56 96.31L8.49 100.07L8.51 102.04L8.57 103.99L8.67 105.94L8.82 107.87L9 109.8L9.22 111.71L9.49 113.61L9.79 115.49L10.13 117.37L10.51 119.23L10.92 121.07L11.37 122.9L11.86 124.72L12.39 126.52L12.95 128.31L13.55 130.08L14.18 131.84L14.85 133.58L15.55 135.3L16.28 137L17.05 138.69L17.85 140.36L18.68 142.01L19.55 143.64L20.45 145.25L21.38 146.84L22.33 148.41L23.32 149.96L24.34 151.49L25.39 152.99L26.47 154.48L27.58 155.94L28.71 157.38L29.88 158.8L31.07 160.19L32.28 161.56L33.53 162.91L34.8 164.23L36.1 165.52L37.42 166.79L39.75 165.81L41.98 164.85L44.13 163.92L46.18 163.02L48.14 162.14L50.02 161.29L51.8 160.47L53.51 159.67L55.13 158.9L56.68 158.15L58.15 157.42L59.54 156.72L60.86 156.05L62.1 155.4L63.28 154.77L64.39 154.16L65.43 153.58L66.41 153.02L67.33 152.48L68.19 151.96L68.99 151.47L69.74 151L70.43 150.55L71.07 150.12L71.67 149.71L72.21 149.32L72.71 148.95L73.16 148.6L73.57 148.26L73.95 147.95L74.28 147.66L74.58 147.39L74.85 147.13L75.09 146.89L75.29 146.67L75.47 146.47L75.62 146.29L75.75 146.12L75.85 145.97L75.94 145.83L75.94 139.93L75.55 139.49L75.16 139.04L74.78 138.59L74.4 138.13L74.03 137.66L73.66 137.19L73.29 136.71L72.93 136.23L72.58 135.74L72.23 135.24L71.88 134.74L71.54 134.23L71.2 133.72L70.86 133.2L70.54 132.68L70.21 132.15L69.89 131.61L69.58 131.07L69.27 130.52L68.97 129.97L68.67 129.41L68.37 128.85L68.08 128.28L67.8 127.71L67.52 127.13L67.25 126.55L66.98 125.96L66.72 125.36L66.46 124.77L66.21 124.16L65.96 123.55L65.72 122.94L65.48 122.32L65.25 121.7L65.03 121.07L64.81 120.44L64.59 119.8L64.38 119.16L64.18 118.51L63.99 117.86L63.74 117.65L63.5 117.43L63.26 117.21L63.02 116.98L62.8 116.75L62.57 116.52L62.35 116.28L62.14 116.04L61.93 115.8L61.72 115.55L61.52 115.3L61.32 115.04L61.13 114.78L60.94 114.52L60.76 114.25L60.59 113.98L60.41 113.71L60.25 113.43L60.08 113.15L59.93 112.87L59.77 112.58L59.63 112.3L59.48 112.01L59.35 111.71L59.21 111.42L59.09 111.12L58.96 110.82L58.85 110.51L58.74 110.21L58.63 109.9L58.53 109.59L58.43 109.28L58.34 108.96L58.26 108.65L58.18 108.33L58.1 108.01L58.03 107.69L57.97 107.37L57.91 107.04L57.86 106.72L57.82 106.38L57.78 106.05L57.75 105.72L57.73 105.39L57.71 105.06L57.7 104.73L57.7 104.4L57.7 104.07L57.71 103.74L57.72 103.42L57.74 103.09L57.76 102.77L57.79 102.44L57.83 102.12L57.87 101.8L57.92 101.48L57.98 101.16L58.04 100.84L58.1 100.52L58.17 100.2L58.25 99.89L58.33 99.57L58.42 99.26L58.52 98.95L58.62 98.64L58.73 98.34L58.84 98.03L58.96 97.73L59.08 97.43L59.21 97.13L59.34 96.83L59.48 96.53L59.63 96.24L59.78 95.95L59.94 95.66L60.1 95.37L60.27 95.08L60.45 94.8L60.63 94.52L60.81 94.24L60.81 76.83L60.84 75.11L60.92 73.43L61.06 71.79L61.25 70.18L61.5 68.61L61.8 67.07L62.15 65.58L62.55 64.12L63.01 62.7L63.52 61.32L64.08 59.97L64.69 58.67L65.35 57.41L66.06 56.18L66.82 55L67.63 53.86L68.48 52.76L69.39 51.7L70.34 50.69L71.34 49.71L72.38 48.79L73.48 47.9L74.61 47.06L75.8 46.26L77.02 45.51L78.3 44.8L79.61 44.14L80.97 43.53L82.38 42.96L83.82 42.44L85.31 41.97L86.84 41.55L88.41 41.17L90.02 40.84L91.67 40.56L93.36 40.34L95.09 40.16L96.86 40.03L98.67 39.95L100.52 39.93L102.39 39.95L104.22 40.03L106.01 40.15L107.76 40.33L109.47 40.55L111.13 40.82L112.76 41.14L114.34 41.51L115.88 41.93L117.37 42.39L118.82 42.9L120.22 43.46L121.58 44.07L122.9 44.72L124.17 45.41L125.4 46.16L126.58 46.94L127.71 47.78L128.79 48.65L129.83 49.58L130.83 50.54L131.77 51.55L132.67 52.6L133.51 53.7L134.31 54.84L135.06 56.02L135.76 57.24L136.42 58.51L137.02 59.81L137.57 61.16L138.07 62.55L138.52 63.98L138.91 65.45L139.26 66.95L139.55 68.5L139.79 70.09L139.98 71.72L140.11 73.38L140.19 75.09L140.22 76.83L140.22 94.24L140.41 94.52L140.59 94.8L140.76 95.08L140.93 95.37L141.09 95.66L141.25 95.95L141.4 96.24L141.55 96.53L141.69 96.83L141.82 97.13L141.95 97.43L142.08 97.73L142.2 98.03L142.31 98.34L142.41 98.64L142.51 98.95L142.61 99.26L142.7 99.57L142.78 99.89L142.86 100.2L142.93 100.52L143 100.84L143.06 101.16L143.11 101.48L143.16 101.8L143.2 102.12L143.24 102.44L143.27 102.77L143.3 103.09L143.31 103.42L143.33 103.74L143.33 104.07L143.34 104.4L143.33 104.73L143.32 105.06L143.3 105.39L143.28 105.72L143.25 106.05L143.21 106.38L143.17 106.72L143.13 107.04L143.07 107.37L143.01 107.69L142.95 108.01L142.88 108.33L142.8 108.65L142.72 108.96L142.63 109.28L142.53 109.59L142.43 109.9L142.33 110.21L142.22 110.51L142.1 110.82L141.98 111.12L141.85 111.42L141.72 111.71L141.58 112.01L141.44 112.3L141.29 112.58L141.13 112.87L140.98 113.15L140.81 113.43L140.64 113.71L140.47 113.98L140.29 114.25L140.11 114.52L139.92 114.78L139.72 115.04L139.53 115.3L139.32 115.55L139.12 115.8L138.9 116.04L138.69 116.28L138.47 116.52L138.24 116.75L138.01 116.98L137.78 117.21L137.54 117.43L137.29 117.65L137.05 117.86L136.85 118.51L136.65 119.15L136.44 119.78L136.23 120.42L136.01 121.05L135.78 121.67L135.55 122.29L135.32 122.91L135.07 123.52L134.83 124.13L134.57 124.73L134.32 125.33L134.05 125.93L133.79 126.51L133.51 127.1L133.23 127.68L132.95 128.25L132.66 128.82L132.37 129.39L132.07 129.94L131.76 130.5L131.45 131.05L131.14 131.59L130.82 132.13L130.5 132.66L130.17 133.19L129.84 133.71L129.5 134.22L129.15 134.73L128.81 135.23L128.46 135.73L128.1 136.22L127.74 136.71L127.37 137.19L127 137.66L126.63 138.12L126.25 138.58L125.87 139.04L125.48 139.49L125.09 139.93L125.09 145.76L125.17 145.88L125.27 146.01L125.4 146.17L125.54 146.34L125.71 146.54L125.91 146.75L126.14 146.98L126.4 147.23L126.69 147.5L127.02 147.78L127.39 148.09L127.79 148.42L128.24 148.77L128.72 149.14L129.26 149.53L129.84 149.94L130.47 150.37L131.15 150.82L131.88 151.29L132.67 151.79L133.51 152.31L134.41 152.85L135.37 153.41L136.4 153.99L137.49 154.6L138.64 155.23L139.87 155.88L141.16 156.56L142.53 157.26L143.97 157.98L145.49 158.73L147.08 159.5L148.76 160.3L150.51 161.12L152.35 161.96L154.28 162.83L156.29 163.73L158.4 164.65L160.59 165.6L162.88 166.57L164.19 165.3L165.47 164.01L166.73 162.7L167.97 161.36L169.18 160L170.36 158.61L171.51 157.2L172.64 155.76L173.74 154.31L174.81 152.83L175.85 151.32L176.86 149.8L177.84 148.26L178.79 146.69L179.71 145.11L180.6 143.5L181.46 141.88L182.29 140.23L183.08 138.57L183.85 136.89L184.58 135.19L185.27 133.48L185.93 131.74L186.56 129.99L187.15 128.23L187.71 126.45L188.23 124.65L188.72 122.84L189.17 121.01L189.58 119.17L189.96 117.32L190.29 115.45L190.59 113.57L190.85 111.67L191.08 109.77L191.26 107.85L191.4 105.92L191.5 103.98L191.57 102.03L191.59 100.07L191.51 96.3L191.28 92.57L190.91 88.87L190.39 85.22L189.72 81.62L188.92 78.07L187.98 74.58L186.91 71.14L185.71 67.76L184.37 64.44L182.92 61.18L181.34 58L179.65 54.88L177.84 51.84L175.92 48.88L173.89 46L171.75 43.2L169.51 40.48L167.16 37.86L164.72 35.32L162.19 32.88L159.56 30.54L156.85 28.3L154.05 26.17L151.16 24.14L148.2 22.22L145.16 20.41L142.04 18.72L138.86 17.14L135.61 15.69L132.29 14.36L128.91 13.16L125.47 12.09L121.98 11.15L118.43 10.35L114.83 9.69L111.19 9.17L107.5 8.79L103.77 8.56L100 8.49L96.23 8.56L92.5 8.79Z" id="aNGTsigjK"></path></defs><g><g><g><use xlink:href="#aNGTsigjK" opacity="1" fill="#007bff" fill-opacity="1"></use><g><use xlink:href="#aNGTsigjK" opacity="1" fill-opacity="0" stroke="#000000" stroke-width="1" stroke-opacity="0"></use></g></g></g></g></svg>